<svg width="285" height="90" viewBox="0 0 285 90" fill="none" xmlns="http://www.w3.org/2000/svg">
<rect x="112" y="15" width="60" height="60" rx="30" fill="white"/>
<path fill-rule="evenodd" clip-rule="evenodd" d="M145.828 24.5855C143.714 22.4715 140.286 22.4715 138.172 24.5855L121.585 41.1723C119.472 43.2863 119.472 46.7137 121.585 48.8277L138.172 65.4145C140.286 67.5285 143.714 67.5285 145.828 65.4145L150.223 61.0195V58.2337L149.71 58.0213L144.412 63.2509C143.003 64.6416 140.737 64.6378 139.333 63.2425L123.606 47.6146C122.18 46.1973 122.187 43.8878 123.622 42.4793L139.349 27.0425C140.749 25.6679 142.991 25.6642 144.396 27.0341L160.227 42.471C161.674 43.8812 161.681 46.2039 160.243 47.623L153.287 54.4898L144.774 46.3196C144.974 45.9051 145.086 45.4404 145.086 44.9494C145.086 43.2055 143.672 41.7917 141.928 41.7917C140.184 41.7917 138.77 43.2055 138.77 44.9494C138.77 46.6934 140.184 48.1071 141.928 48.1071C142.301 48.1071 142.66 48.0423 142.992 47.9233L151.511 55.9387L151.513 55.9372L151.549 55.974L151.669 56.087L151.665 56.0913L152.284 56.7192V58.9586L152.304 58.9378V64.9826C152.304 65.6222 152.823 66.1406 153.462 66.1406C154.102 66.1406 154.62 65.6222 154.62 64.9826V56.6218L162.415 48.8277C164.528 46.7137 164.528 43.2863 162.415 41.1723L145.828 24.5855Z" fill="#1CB5E0"/>
</svg>
