<svg width="285" height="90" viewBox="0 0 285 90" fill="none" xmlns="http://www.w3.org/2000/svg">
<path fill-rule="evenodd" clip-rule="evenodd" d="M142 75C158.569 75 172 61.5685 172 45C172 28.4315 158.569 15 142 15C125.431 15 112 28.4315 112 45C112 61.5685 125.431 75 142 75Z" fill="white"/>
<path d="M140.114 47.908L132.823 55.2414C131.817 56.2529 130.057 56.2529 129.051 55.2414L120.754 46.8966C119.749 45.8851 119.749 44.1149 120.754 43.1034L129.051 34.7586C130.057 33.7471 131.817 33.7471 132.823 34.7586L140.114 42.092C141.12 43.1034 142.88 43.1034 143.886 42.092L151.177 34.7586C152.183 33.7471 153.943 33.7471 154.949 34.7586L163.246 43.1034C164.251 44.1149 164.251 45.8851 163.246 46.8966L154.949 55.2414C153.943 56.2529 152.183 56.2529 151.177 55.2414L143.886 47.908C142.754 46.8966 141.12 46.8966 140.114 47.908Z" fill="#9201E4"/>
</svg>
